<?xml version="1.0" encoding="utf-8"?>
<!DOCTYPE svg PUBLIC "-//W3C//DTD SVG 1.0//EN" "http://www.w3.org/TR/2001/REC-SVG-20010904/DTD/svg10.dtd">
<svg version="1.0" xmlns="http://www.w3.org/2000/svg" width="925px" height="925px" viewBox="0 0 925 925" preserveAspectRatio="xMidYMid meet">
 <g fill="#fbf8f3">
  <path d="M0 462.5 l0 -462.5 462.5 0 462.5 0 0 462.5 0 462.5 -462.5 0 -462.5 0 0 -462.5z m471 337.7 c21.9 -8 55.6 -23.8 74.9 -34.8 33.7 -19.3 61.9 -40.7 88.3 -67.1 45.5 -45.3 68.7 -89 77.3 -145.4 1.4 -9.6 1.5 -24.1 1.8 -178 l0.3 -167.6 -5.6 -4.4 c-7.9 -6.1 -29.2 -20.1 -40.9 -26.8 -47.2 -27 -105.9 -46.2 -164.4 -53.8 -15.7 -2 -71.5 -2.3 -87.6 -0.5 -46.3 5.4 -94.5 18.7 -135.9 37.4 -26.4 11.9 -57.5 30.2 -74.3 43.8 l-6.1 4.9 0.4 165.9 c0.3 180.4 0 169.9 5.2 196.2 12.1 60.5 52.1 116.9 117.8 165.8 30.4 22.7 63.7 41.2 105.1 58.4 21.6 9 29.2 11.5 31.8 10.5 1.3 -0.5 6.7 -2.5 12.1 -4.5z"/>
  <path d="M438.5 781 c-64.9 -25.5 -115.4 -57.9 -156.6 -100.4 -31.9 -32.9 -53.9 -72.9 -61.8 -112.4 -4.8 -23.9 -4.6 -16.4 -4.7 -175.2 0 -81.8 0.2 -154.1 0.5 -160.8 l0.5 -12.2 14.2 -9.5 c39 -26.2 80.5 -44 131.3 -56.5 34.7 -8.5 58.4 -11.4 95.3 -11.6 41.1 -0.2 70.1 4 113 16.1 42.1 11.9 90.8 35.2 120.3 57.5 l7 5.3 0 156.5 c0 102.3 -0.4 159.9 -0.9 165.9 -4.4 43.4 -21.4 83.7 -50.6 120 -22.6 28 -62.1 61 -99.6 82.9 -30 17.6 -81.2 40.2 -90.4 39.9 -1.5 0 -9.3 -2.6 -17.3 -5.7z m52.5 -71.5 c7.5 -0.7 16 -1.7 19 -2.2 10.4 -1.5 22.6 -3.8 25.3 -4.6 1.5 -0.5 7 -1.9 12.2 -3.3 20.5 -5.2 46.9 -16.2 61.1 -25.2 2.7 -1.7 5.1 -3.2 5.4 -3.2 1.2 0 11.2 -8.3 17.3 -14.4 21.1 -20.9 23.8 -37.1 8.6 -53.6 -20.5 -22.1 -68.3 -37.6 -137.9 -44.7 -11.7 -1.2 -23.8 -1.5 -50.7 -1.6 l-35.4 0 -0.5 -40.6 c-0.4 -22.3 -1.2 -94.1 -1.9 -159.4 -0.7 -65.3 -1.4 -127 -1.6 -137 l-0.4 -18.3 2.9 -1.7 c1.7 -1 3.7 -3.4 5 -5.9 2 -4.2 2 -4.3 0.4 -7.9 -1.8 -4.2 -6.6 -8.7 -9.8 -9.5 -5.2 -1.3 -11.1 2.7 -13.5 9.1 -1.5 3.9 -1.5 4.1 0.5 8.2 1.2 2.4 3.3 4.9 4.7 5.7 l2.7 1.4 -0.6 49.2 c-0.3 27.1 -0.9 81.8 -1.4 121.5 -0.5 39.7 -1.2 98 -1.4 129.4 -0.5 40.1 -0.9 57.4 -1.6 57.5 -0.5 0.1 -8.5 1.1 -17.7 2.2 -74.2 8.8 -120.5 31.5 -120.5 59.3 0 14.3 15.8 34.6 38.9 50.1 32.9 22 78.8 35.7 132.2 39.6 17.2 1.3 44.7 1.1 59.2 -0.4z m-59.6 -395.2 c2.3 -8.2 7 -22.2 10.4 -31.2 3.4 -8.9 6.1 -16.4 6 -16.4 -0.5 -0.5 -14.5 31.5 -19 43.4 -6 15.4 -6.6 18.3 -4.5 20.6 2.1 2.3 1.5 3.4 7.1 -16.4z m52.6 -0.1 c-4 -3.1 -5.3 -9.3 -5.8 -27.1 -0.3 -9 0 -20.5 0.5 -26.6 1.9 -19.4 7.7 -43.4 13.4 -55 l2.2 -4.5 -2.3 2.7 c-6.1 7.3 -13.5 26.3 -17.2 44.2 -6.4 31.5 -4.4 54.5 5.4 64.5 2.1 2.1 4.3 3.8 5 3.8 0.6 0 0.1 -0.8 -1.2 -1.9z m29.2 -21.1 c1.9 -4 4.3 -10.2 5.4 -13.7 l2 -6.6 3.9 0 3.9 0 0.6 5 c1.4 10.8 8.4 19.9 16.4 20.8 l3.5 0.5 -3.2 -1 c-8.1 -2.5 -10.4 -8.6 -10.4 -27.5 0.1 -14.6 1.2 -20.8 5.4 -29.4 1.3 -2.6 2.3 -4.9 2.3 -5.1 0 -0.2 -1 -0.3 -2.3 -0.3 -1.9 0 -2.3 -0.5 -2.3 -2.6 0 -8.9 12 -36.3 20.1 -46 l2.8 -3.3 -3.9 3.6 c-8.7 8.1 -17.7 25.1 -22.8 42.7 -2.1 7.2 -2.3 7.4 -5 7.4 l-2.8 0 -0.5 -13.3 c-0.3 -7.6 -1.2 -15.7 -2 -18.8 -1.6 -6 -4.9 -11.6 -7.7 -13.1 -1.7 -0.9 -1.8 -0.9 0 2 3.1 5.2 3.9 13.8 3.3 35.8 -0.4 16.8 -0.8 23 -2.8 34.4 -2.6 14.7 -5.4 25.5 -9.1 34.7 -2 5 -2.1 5.3 -0.5 3.3 1 -1.3 3.4 -5.5 5.4 -9.5z m60 -17.2 c9.8 -20.3 7.8 -45.6 -4.2 -51.3 -2.5 -1.2 -3.7 -1.3 -7.5 -0.4 l-4.5 1.1 4.5 0.3 c8.9 0.5 11.3 6.1 11.3 25.6 0 13.3 -1.4 22.6 -4.4 30.6 -1.9 4.9 -1.9 5 -0.1 2.7 1 -1.3 3.3 -5.1 4.9 -8.6z m-143.5 -53.2 c3.9 -2.6 29 -9.6 34.6 -9.6 3.3 0 3.7 0.3 4 2.3 0.2 1.8 0.7 1 2.6 -4 l2.3 -6.3 -5.1 1.7 c-7.1 2.5 -33.7 8.9 -36.9 8.9 -3.8 0 -4.5 0.9 -5.6 6.7 -1.4 7.1 -1.2 7.9 0.6 4.4 0.9 -1.6 2.3 -3.5 3.3 -4.2z"/>
 </g>
 <g fill="#0d4125">
  <path d="M445.8 805.4 c-27.8 -10.1 -61.1 -25.7 -86.7 -40.6 -33.8 -19.6 -70.6 -48.9 -94.6 -75.1 -33.6 -36.9 -54.7 -76.2 -63 -117.1 -5.2 -26.3 -5 -15.4 -5.2 -198.9 l-0.4 -168.6 6.1 -4.9 c16.9 -13.6 48 -31.9 74.3 -43.8 34.3 -15.4 72.4 -27 110.2 -33.5 26.9 -4.6 33.1 -5.1 70.9 -5.1 28.9 0 37.5 0.3 47.9 1.6 69 9 133.3 32.3 187 67.9 7 4.6 15.3 10.4 18.3 12.7 l5.6 4.4 -0.3 170.3 c-0.3 156.5 -0.4 171.1 -1.8 180.7 -7 45.4 -22.6 80.7 -52.8 118.8 -10.8 13.6 -36.9 39.6 -52.2 52 -39.7 32.2 -84.7 57.5 -137.7 77.2 -7.1 2.7 -14 4.9 -15.4 4.9 -1.3 -0.1 -6 -1.4 -10.5 -3.1z m17.7 -23.9 c22.7 -7.9 56.5 -23.6 80 -37.4 28.1 -16.5 59.9 -41 81.7 -63 40 -40.6 63.3 -88 68.6 -139.9 0.5 -6.1 0.9 -62.8 0.9 -163.2 l0 -153.8 -7 -5.3 c-29.5 -22.3 -78.2 -45.6 -120.3 -57.5 -42 -11.9 -72.1 -16.3 -110.6 -16 -34.1 0.2 -58.5 3.2 -92.3 11.5 -50.8 12.5 -92.2 30.3 -131.3 56.5 l-14.2 9.5 -0.5 10.8 c-0.3 6 -0.5 77.1 -0.5 158.1 0 157.4 -0.2 150 4.6 173.9 7.9 39.5 29.9 79.5 61.8 112.4 41.2 42.5 91.8 75 156.6 100.4 8 3.1 14.5 5.7 14.6 5.7 0 0.1 3.4 -1.1 7.7 -2.5z m-230.9 -582.4 c39.3 -25.2 85.9 -44.3 136.6 -55.9 23.8 -5.4 56 -9.5 75.1 -9.5 6 0 13.3 -0.3 16.4 -0.5 4.7 -0.5 5.5 -0.9 5.5 -2.4 0 -1.7 -0.5 -1.8 -19.6 -1.3 -79.5 2.1 -165.3 30.6 -229.5 76.2 -4.5 3.3 -5.5 4.2 -4.7 5.3 0.9 1 1.9 0.6 5.7 -2.2 2.6 -1.9 9.2 -6.3 14.6 -9.8z m453.9 2.3 c0 -2.4 -13.5 -11.2 -33.2 -21.8 -20.9 -11.1 -35.5 -17.3 -38.3 -16.3 -2 0.8 -2 0.8 -0.3 1.5 18.1 6.8 47.1 22 65.4 34.3 3.3 2.2 6.1 4 6.1 4 0.2 0 0.3 -0.8 0.3 -1.8z"/>
  <path d="M384 640.4 c-9.1 -1.9 -16.6 -5.2 -18.2 -7.9 -0.5 -1 -0.9 -3.8 -0.9 -6.3 0 -3.4 0.5 -5.1 1.9 -6.5 2.9 -2.9 9.1 -5.3 18.2 -7 l8.3 -1.6 0.3 -27.1 c0.2 -26.2 0.3 -27.2 2 -27.6 1.7 -0.5 1.8 -1.3 1.8 -21.6 0 -11.6 0.5 -51.5 0.9 -88.8 2.5 -194 2.8 -241.9 1.6 -242.6 -0.6 -0.5 2.7 -0.8 7.8 -0.8 7.3 0 8.8 0.2 7.7 1.1 -1.3 1.1 -1.2 15.7 0.2 133.5 2.6 215.6 2.6 217.7 4.1 217.7 1 0 1.3 2.2 1.3 10.2 0 5.7 0.3 18.2 0.6 27.9 l0.5 17.6 8 1.5 c9.2 1.7 16.7 4.8 19.5 7.9 1.5 1.6 2 3.2 2 7.2 0 4.9 -0.2 5.4 -2.9 7.4 -7.5 5.5 -19.8 7.9 -40.8 7.8 -11.7 0 -17.5 -0.5 -23.9 -1.8z"/>
  <path d="M421.4 333.3 c-3.8 -4.2 1.1 -20 16.8 -54.7 13.9 -30.6 26.2 -58.5 26.6 -60.6 0.7 -2.6 0.4 -2.6 -10.4 0.3 -21.3 5.6 -23 6.5 -26.2 12.9 -1.4 2.8 -3.1 6.6 -3.6 8.4 -1.4 4.3 -3.3 6 -5.1 4.2 -1 -1.1 -0.7 -3.4 1.5 -15.3 1.5 -7.7 3.3 -14.3 3.8 -14.6 0.5 -0.4 2.1 -0.7 3.4 -0.7 3.3 0 25.9 -5.5 37.2 -8.9 10.6 -3.3 11.4 -3.3 11.4 -0.9 0 2 -6.1 17.8 -20.4 52.3 -14.5 35 -22.4 57.9 -26.9 77.1 -0.5 2.1 -1.1 2.4 -3.6 2.4 -1.8 0 -3.6 -0.7 -4.6 -1.8z"/>
  <path d="M481.9 318.5 c-10.6 -4.6 -15.4 -23 -13.3 -49.6 2.6 -31.5 11.7 -58.5 23.9 -71.6 6.3 -6.9 11.4 -9.4 18.4 -9.4 12.5 0 17.1 8.5 18.1 33.8 l0.5 13.5 2.4 -8 c7.9 -26.5 21.2 -45.6 36.8 -52.9 6.8 -3.3 14 -3.9 14.5 -1.4 0.2 0.8 -0.2 1.5 -0.7 1.5 -0.5 0 -3.3 1.1 -6.1 2.5 -10.7 5.2 -22.2 20.1 -29.2 38.1 -4 10.1 -6.4 18.1 -5.5 18.1 0.4 -0.1 2.4 -1.9 4.7 -4.2 5.7 -5.7 10.7 -7.9 18 -7.9 7.4 -0.1 10.7 2 14 8.8 6.2 12.7 5.1 32.7 -2.9 49.4 -4.3 9.2 -12.9 17.9 -20.5 20.7 -7.3 2.8 -14.2 2.3 -19.3 -1.2 -4.5 -3.2 -8.8 -11.1 -9.6 -18.2 -0.9 -6.9 -2.5 -6.3 -5 1.6 -4.2 13.6 -11.7 26.6 -18.5 31.8 -6.9 5.1 -15.2 7 -20.8 4.6z m13.5 -7.2 c11.9 -9.1 22.1 -49 22.1 -86.3 0 -19.8 -2 -29 -6.5 -30.7 -9.4 -3.4 -20.1 15.5 -26.5 47.1 -3.1 15.7 -4.3 30.6 -3.8 45.9 0.5 14.9 2.1 21.5 5.8 24.3 3.1 2.4 5.3 2.3 8.9 -0.3z m59.8 -18.5 c9.8 -7 14.7 -21.1 14.7 -41.6 0 -15.3 -3.2 -22.7 -9.7 -22.7 -8.3 0 -16.7 10.3 -20.8 25.5 -2.2 8 -2.2 25.8 0 32 3.2 9.1 9 11.7 15.7 6.8z"/>
 </g>
 <g fill="#fadc3a">
  <path d="M429.1 712.6 c-63.8 -4.6 -118.3 -24 -149 -52.9 -9.3 -8.8 -14.5 -15.5 -18.8 -24.4 -3.1 -6.5 -3.3 -7.7 -3.3 -15.2 0 -6.9 0.4 -8.9 2.4 -13.3 9.1 -19.5 40.3 -35 89.7 -44.4 12 -2.3 39 -6 43.9 -6 l2.6 0 -0.2 28.6 -0.3 28.5 -8.6 1.6 c-19.6 3.8 -25.8 12.2 -13.7 18.3 14.1 7.1 49.1 8 65.6 1.7 16.6 -6.4 10.9 -16.4 -11.9 -20.7 l-8 -1.5 -0.5 -17.6 c-0.4 -9.7 -0.6 -22.9 -0.6 -29.2 l0 -11.5 9.8 -0.6 c13.7 -1 60.3 0.1 77.4 1.8 48.1 4.7 86 13.9 112.9 27.3 14.9 7.5 26.6 17.5 31.2 27 3.1 6.3 3.5 18.6 1 25.9 -2.3 6.8 -8.3 15.2 -16.6 23.3 -6.1 6.1 -16.1 14.4 -17.3 14.4 -0.3 0 -2.7 1.4 -5.4 3.2 -14.2 9 -40.6 20 -61.1 25.2 -5.2 1.4 -10.7 2.8 -12.2 3.3 -2.7 0.8 -14.9 3.1 -25.3 4.6 -22 3.3 -57.7 4.4 -83.6 2.5z"/>
 </g>
 <g fill="#2c6141">
  <path d="M209.7 213.5 c-1.5 -1.9 -2.8 -3.7 -2.8 -4.1 0 -1.9 23.8 -18 40.6 -27.5 41 -23.1 88.3 -40.1 136.9 -49.1 20.5 -3.8 39.2 -5.7 62.6 -6.1 l22.9 -0.5 -0.6 4.4 c-0.4 2.4 -0.8 4.6 -1 4.8 -0.2 0.2 -6.8 0.5 -14.5 0.7 -83.4 1.9 -170.3 30.2 -234.3 76.3 -3.3 2.3 -6.2 4.3 -6.5 4.3 -0.3 0 -1.7 -1.5 -3.3 -3.3z"/>
  <path d="M682 205 c-28 -18.4 -52.6 -31.2 -75.4 -39.1 -10.4 -3.6 -15.8 -5.8 -15.8 -6.4 0 -0.5 0.1 -0.5 9.8 2.8 l7.6 2.5 1.4 -1.9 c0.9 -1 2.3 -2.1 3.2 -2.3 0.9 -0.4 1.4 -1 1.1 -1.5 -1.1 -1.7 1.7 -0.9 14.4 4.5 20.5 8.8 53.6 27 60.8 33.6 1.1 1 1.7 2.3 1.5 3 -0.3 0.6 -0.7 3 -1.1 5.2 l-0.6 4.1 -6.8 -4.4z"/>
 </g>
 <g fill="#d51b22">
  <path d="M401.1 204.4 c0 -0.5 -1.2 -1.4 -2.6 -2.2 -3.2 -1.8 -6.4 -8.4 -6.4 -13.1 0 -4.8 3.3 -11.1 7.1 -13.6 3.6 -2.4 11.4 -2.8 15.3 -0.8 5.1 2.7 9.2 9.1 9.2 14.6 0 5 -3.3 10.9 -7.3 13.5 -2.8 1.7 -4.7 2.2 -9.4 2.2 -3.3 0 -5.9 -0.3 -5.9 -0.6z"/>
 </g>
</svg>